<?xml version="1.0" encoding="UTF-8" standalone="no" ?>
<!DOCTYPE svg PUBLIC "-//W3C//DTD SVG 1.1//EN" "http://www.w3.org/Graphics/SVG/1.1/DTD/svg11.dtd">
<svg xmlns="http://www.w3.org/2000/svg" xmlns:xlink="http://www.w3.org/1999/xlink" version="1.1" width="1080" height="1080" viewBox="0 0 1080 1080" xml:space="preserve">
<desc>Created with Fabric.js 5.2.4</desc>
<defs>
</defs>
<g transform="matrix(1 0 0 1 540 540)" id="cc08c13d-ff3a-4d5e-b362-c66203e5055d"  >
<rect style="stroke: none; stroke-width: 1; stroke-dasharray: none; stroke-linecap: butt; stroke-dashoffset: 0; stroke-linejoin: miter; stroke-miterlimit: 4; fill: rgb(255,255,255); fill-rule: nonzero; opacity: 1; visibility: hidden;" vector-effect="non-scaling-stroke"  x="-540" y="-540" rx="0" ry="0" width="1080" height="1080" />
</g>
<g transform="matrix(1 0 0 1 540 540)" id="78aa8287-12bf-4b49-a1d4-dada69ea3819"  >
</g>
<g transform="matrix(8.44 0 0 8.44 540 540)"  >
<g style=""   >
		<g transform="matrix(1 0 0 1 1 0)" id="logo"  >
<path style="stroke: none; stroke-width: 1; stroke-dasharray: none; stroke-linecap: butt; stroke-dashoffset: 0; stroke-linejoin: miter; stroke-miterlimit: 4; fill: rgb(0,0,0); fill-rule: nonzero; opacity: 1;" vector-effect="non-scaling-stroke"  transform=" translate(-65, -64)" d="M 81 62 L 73 62 C 71.8954305003384 62 71 62.89543050033841 71 64 C 71 65.1045694996616 71.8954305003384 66 73 66 L 78.66 66 C 77.6430372486974 68.87640369613568 74.62946108494954 70.5316919758574 71.65641880962258 69.84690654245605 C 68.68337653429562 69.16212110905471 66.69756141739984 66.35531529012074 67.04136458681447 63.323861704564735 C 67.3851677562291 60.29240811900871 69.94911342367014 58.00159970316429 73 58 C 73.89687969880026 57.997934607916484 74.78250550819364 58.199679483415366 75.59 58.59 C 76.56019968424381 58.95819085258851 77.650841208613 58.52318928436477 78.10133123034629 57.588357389554055 C 78.55182125207958 56.65352549474334 78.21249831697452 55.52943241819358 77.32 55 C 75.97413353615956 54.344316662904774 74.49708763240693 54.00240788888796 73 54 C 67.47715250169206 54 63 58.47715250169207 63 64 C 63 69.52284749830794 67.47715250169206 74 73 74 C 78.52284749830794 74 83 69.52284749830794 83 64 C 83 62.89543050033841 82.1045694996616 62 81 62 z M 38 70 L 28 70 L 28 56 C 28 54.89543050033841 27.104569499661586 54 26 54 C 24.895430500338414 54 24 54.89543050033841 24 56 L 24 72 C 24 73.1045694996616 24.895430500338414 74 26 74 L 38 74 C 39.10456949966159 74 40 73.1045694996616 40 72 C 40 70.8954305003384 39.10456949966159 70 38 70 z M 50 54 C 44.47715250169207 54 40 58.47715250169207 40 64 C 40 69.52284749830794 44.47715250169207 74 50 74 C 55.52284749830793 74 60 69.52284749830794 60 64 C 60 58.47715250169207 55.52284749830793 54 50 54 z M 50 70 C 46.68629150101524 70 44 67.31370849898477 44 64 C 44 60.68629150101524 46.68629150101524 58 50 58 C 53.31370849898476 58 56 60.68629150101523 56 64 C 56 67.31370849898477 53.31370849898476 70 50 70 z M 96 54 C 90.47715250169206 54 86 58.47715250169207 86 64 C 86 69.52284749830794 90.47715250169206 74 96 74 C 101.52284749830794 74 106 69.52284749830794 106 64 C 106 58.47715250169207 101.52284749830794 54 96 54 z M 96 70 C 92.68629150101523 70 90 67.31370849898477 90 64 C 90 60.68629150101524 92.68629150101523 58 96 58 C 99.31370849898477 58 102 60.68629150101523 102 64 C 102 67.31370849898477 99.31370849898477 70 96 70 z" stroke-linecap="round" />
</g>
		<g transform="matrix(1 0 0 1 0 0)" id="logo"  >
<path style="stroke: none; stroke-width: 1; stroke-dasharray: none; stroke-linecap: butt; stroke-dashoffset: 0; stroke-linejoin: miter; stroke-miterlimit: 4; fill: rgb(0,0,0); fill-rule: nonzero; opacity: 1;" vector-effect="non-scaling-stroke"  transform=" translate(-64, -64)" d="M 64 0 C 28.65377601082922 0 0 28.65377601082922 0 64 C 0 99.34622398917078 28.65377601082922 128 64 128 C 99.34622398917078 128 128 99.34622398917078 128 64 C 127.9614208185792 28.66976836967949 99.33023163032047 0.03857918142075789 63.99999999999996 0 Z M 64 124 C 30.862915010152392 124 4 97.13708498984761 4 64 C 4 30.862915010152392 30.862915010152392 4 64 4 C 97.13708498984761 4 124 30.862915010152378 124 63.999999999999986 C 123.96142618850139 97.12109403598089 97.12109403598089 123.96142618850139 64 124 Z" stroke-linecap="round" />
</g>
</g>
</g>
</svg>